HIERARCHY
ROOT root
{
	OFFSET	0	13.1	24.9
	CHANNELS 6  Xposition Yposition Zposition Xrotation Yrotation Zrotation
	JOINT spine_1
	{
		OFFSET	0	9.99999	0
		CHANNELS 3  Xrotation Yrotation Zrotation
		JOINT spine_2
		{
			OFFSET	0	112	-10
			CHANNELS 3  Xrotation Yrotation Zrotation
			JOINT spine_3
			{
				OFFSET	0	206.5	19.3
				CHANNELS 3  Xrotation Yrotation Zrotation
				JOINT spine_4
				{
					OFFSET	0	110.4	14.6
					CHANNELS 3  Xrotation Yrotation Zrotation
					JOINT neck_1
					{
						OFFSET	0	71.8	-50.3
						CHANNELS 3  Xrotation Yrotation Zrotation
						JOINT neck_2
						{
							OFFSET	0	86.2	-25.8
							CHANNELS 3  Xrotation Yrotation Zrotation
							JOINT head_ee
							{
								OFFSET	0	179.8	-8.7
								CHANNELS 3  Xrotation Yrotation Zrotation
								End Site
								{
									OFFSET	1	0	0
								}
							}
						}
					}
					JOINT left_clavicle
					{
						OFFSET	-43.2	22.4	-70.8
						CHANNELS 3  Xrotation Yrotation Zrotation
						JOINT left_shoulder
						{
							OFFSET	-93.9	-5.79999	48.7
							CHANNELS 3  Xrotation Yrotation Zrotation
							JOINT left_elbow
							{
								OFFSET	-291.4	-30.8	15.2
								CHANNELS 3  Xrotation Yrotation Zrotation
								JOINT left_lowarm_twist
								{
									OFFSET	-110.7	-3.89999	13.6
									CHANNELS 3  Xrotation Yrotation Zrotation
									JOINT left_hand
									{
										OFFSET	-110.7	-3.89999	13.6
										CHANNELS 3  Xrotation Yrotation Zrotation
										JOINT left_ee
										{
											OFFSET	-80.8	-5.10001	12.1
											CHANNELS 3  Xrotation Yrotation Zrotation
											End Site
											{
												OFFSET	1	0	0
											}
										}
									}
								}
							}
						}
					}
					JOINT right_clavicle
					{
						OFFSET	43.2	22.4	-70.8
						CHANNELS 3  Xrotation Yrotation Zrotation
						JOINT right_shoulder
						{
							OFFSET	93.9	-5.79999	48.7
							CHANNELS 3  Xrotation Yrotation Zrotation
							JOINT right_elbow
							{
								OFFSET	291.4	-30.8	15.2
								CHANNELS 3  Xrotation Yrotation Zrotation
								JOINT right_lowarm_twist
								{
									OFFSET	110.7	-3.89999	13.6
									CHANNELS 3  Xrotation Yrotation Zrotation
									JOINT right_hand
									{
										OFFSET	110.7	-3.89999	13.6
										CHANNELS 3  Xrotation Yrotation Zrotation
										JOINT right_ee
										{
											OFFSET	80.8	-5.10001	12.1
											CHANNELS 3  Xrotation Yrotation Zrotation
											End Site
											{
												OFFSET	1	0	0
											}
										}
									}
								}
							}
						}
					}
				}
			}
		}
	}
	JOINT left_hip
	{
		OFFSET	-82.8	-127.5	0.300001
		CHANNELS 3  Xrotation Yrotation Zrotation
		JOINT left_knee
		{
			OFFSET	-28.2	-396.7	2.2
			CHANNELS 3  Xrotation Yrotation Zrotation
			JOINT left_ankle
			{
				OFFSET	-11.7	-411.3	35.4
				CHANNELS 3  Xrotation Yrotation Zrotation
				JOINT left_toes
				{
					OFFSET	0	-60	-88.6
					CHANNELS 3  Xrotation Yrotation Zrotation
					JOINT left_foot_ee
					{
						OFFSET	-22.5	-16.5	-42.2
						CHANNELS 3  Xrotation Yrotation Zrotation
						End Site
						{
							OFFSET	1	0	0
						}
					}
				}
			}
		}
	}
	JOINT right_hip
	{
		OFFSET	82.8	-127.5	0.300001
		CHANNELS 3  Xrotation Yrotation Zrotation
		JOINT right_knee
		{
			OFFSET	28.2	-396.7	2.2
			CHANNELS 3  Xrotation Yrotation Zrotation
			JOINT right_ankle
			{
				OFFSET	11.7	-411.3	35.4
				CHANNELS 3  Xrotation Yrotation Zrotation
				JOINT right_toes
				{
					OFFSET	0	-60	-88.6
					CHANNELS 3  Xrotation Yrotation Zrotation
					JOINT right_foot_ee
					{
						OFFSET	22.5	-16.5	-42.2
						CHANNELS 3  Xrotation Yrotation Zrotation
						End Site
						{
							OFFSET	1	0	0
						}
					}
				}
			}
		}
	}
}
MOTION
Frames: 10
Frame Time: 0.02
1193.20864032 733.207 -1802.41199389 1.33713966051 20.8847158861 3.93398576327 -1.457 -0.216017 -2.11983 -1.4545 -0.08072 -2.12927 -1.44936 0.421738 -2.08866 -1.45544 0.086658 -2.12904 3.02608 17.2948 7.5843 3.61469 23.769 9.52497 -0.0 0.0 -0.0 2.23095 15.474 5.36762 -18.4666 -37.4462 72.0905 0.493774 -13.7449 0.0595127 8.51216 0.221228 -1.06384 1.17705 0.297754 8.00722 -0.0 0.0 -0.0 7.56796 19.1852 -14.0829 -0.982928 28.9817 -60.4787 1.11784 28.9745 -0.288838 -3.0645 0.118005 -0.373458 0.0157071 -9.56336 -4.06647 0.0 0.0 0.0 19.0972 -2.87801 -7.54788 -66.7578 -2.97216 9.22571 40.4249 15.0796 -4.97182 -6.09593 0.0 0.0 -0.0 0.0 -0.0 11.1639 0.516843 -7.92991 -21.9989 -0.266536 -3.34468 22.274 7.28944 3.10308 9.10252 -0.0 -0.0 0.0 0.0 0.0 
1180.73733542 733.504 -1812.26064641 0.898818430388 20.3603079523 4.60907144041 -1.4415 -0.286628 -2.08733 -1.43909 -0.153255 -2.10133 -1.43129 0.343963 -2.07866 -1.43732 0.0114374 -2.10688 2.90654 17.0864 6.80871 3.49323 24.1084 8.65977 -0.0 0.0 -0.0 2.44336 13.2035 5.58414 -19.8654 -37.6651 73.8594 0.378791 -10.6277 0.0352319 9.01124 0.229264 -1.12708 1.27022 -0.382257 8.36081 -0.0 0.0 -0.0 8.13786 20.6518 -15.2205 0.480905 30.677 -59.0832 1.23431 31.4421 -0.347452 -3.36213 0.130528 -0.409386 0.0821332 -9.0047 -4.26843 0.0 0.0 0.0 22.5437 -1.0051 -9.60753 -63.8334 -2.62783 8.93378 40.9638 10.1394 -4.96119 -5.96701 0.0 0.0 -0.0 0.0 -0.0 10.1565 -4.70079 -7.33565 -22.2413 -0.262283 -3.38163 21.3558 14.7414 3.11831 10.2912 -0.0 -0.0 0.0 0.0 0.0 
1181.01537702 733.504 -1812.41831818 0.898543726293 20.3130586815 4.6098618737 -1.4415 -0.286628 -2.08733 -1.43909 -0.153255 -2.10133 -1.43129 0.343963 -2.07866 -1.43732 0.0114374 -2.10688 2.90654 17.0864 6.80871 3.49323 24.1084 8.65977 -0.0 0.0 -0.0 2.44336 13.2035 5.58414 -19.8654 -37.6651 73.8594 0.378791 -10.6277 0.0352319 9.01124 0.229264 -1.12708 1.27022 -0.382257 8.36081 -0.0 0.0 -0.0 8.13786 20.6518 -15.2205 0.480905 30.677 -59.0832 1.23431 31.4421 -0.347452 -3.36213 0.130528 -0.409386 0.0821332 -9.0047 -4.26843 0.0 0.0 0.0 22.5437 -1.0051 -9.60753 -63.8334 -2.62783 8.93378 40.9638 10.1394 -4.96119 -5.96701 0.0 0.0 -0.0 0.0 -0.0 10.1565 -4.70079 -7.33565 -22.2413 -0.262283 -3.38163 21.3558 14.7414 3.11831 10.2912 -0.0 -0.0 0.0 0.0 0.0 
1135.01063195 740.43 -1818.95477159 -1.72169471174 23.089939887 4.1771029909 -1.05509 -0.213676 -1.87896 -1.05314 -0.0937017 -1.88874 -1.04854 0.339562 -1.86034 -1.05337 0.04155 -1.89061 2.90487 17.27 4.76979 3.5814 26.1833 6.38041 -0.0 0.0 -0.0 2.11887 13.919 5.09346 -19.961 -38.8659 76.2811 0.274464 -7.7427 0.0185733 6.28239 0.178607 -0.782215 0.985114 2.42748 7.57445 -0.0 0.0 -0.0 8.68521 19.543 -16.5127 4.37286 28.0231 -56.5991 1.66875 39.5756 -0.600424 -3.62063 0.141556 -0.440538 0.706039 1.98276 -3.90185 0.0 0.0 0.0 29.2364 4.29381 -10.2579 -60.7935 -2.28628 8.61229 39.831 3.26824 -4.84531 -5.9163 0.0 0.0 -0.0 0.0 -0.0 8.42668 -3.02697 -5.36542 -14.9237 -0.321556 -2.26118 22.8114 8.87581 3.19228 5.49115 -0.0 -0.0 0.0 0.0 0.0 
1124.1080664 740.58 -1829.02056866 -2.59654240764 23.1870672167 4.09715437354 -1.01448 -0.134164 -1.60868 -1.01304 -0.0315413 -1.61396 -1.01111 0.336374 -1.57884 -1.01458 0.0828374 -1.61214 2.99457 17.9559 4.23087 3.77404 27.83 5.78238 -0.0 0.0 -0.0 2.06295 12.1338 4.88549 -21.1353 -39.9494 77.3776 0.280091 -7.89948 0.019339 5.18825 0.153691 -0.64467 1.12956 2.62608 8.62144 -0.0 0.0 -0.0 9.02273 21.401 -17.1163 5.75967 27.0049 -55.6045 1.85815 42.6245 -0.724974 -3.43919 0.133801 -0.418677 0.923688 6.42614 -3.50932 0.0 0.0 0.0 32.9702 3.43793 -10.4831 -57.335 -1.9192 8.22534 40.0174 -1.553 -4.89063 -4.57061 0.0 0.0 -0.0 0.0 -0.0 6.6138 0.0268804 -4.16458 -8.90208 -0.262899 -1.33953 19.5458 12.9611 2.84743 3.97131 -0.0 -0.0 0.0 0.0 0.0 
1109.80244329 736.248 -1842.36884302 -1.30541475897 23.7651137723 4.16449443666 -1.06325 -0.0276373 -1.46023 -1.06207 0.0653268 -1.45903 -1.06296 0.396751 -1.40558 -1.06568 0.169811 -1.45059 2.37629 17.865 4.66519 3.09437 27.48 6.36259 -0.0 0.0 -0.0 1.21207 12.1128 3.4589 -20.6762 -40.8345 78.6902 0.318252 -8.9593 0.0249334 4.31301 0.13187 -0.534995 1.06909 4.46895 8.94505 -0.0 0.0 -0.0 9.28494 21.2573 -17.7107 6.7451 26.3176 -55.1775 2.08786 45.9594 -0.885449 -2.66381 0.101441 -0.324988 1.16487 10.737 -3.29862 0.0 0.0 0.0 34.6069 3.28237 -13.043 -49.8576 -1.20979 7.3184 37.7733 -3.88443 -4.71901 -5.85231 0.0 0.0 -0.0 0.0 -0.0 2.75242 0.777672 -5.62016 -7.03155 -0.224998 -1.055 23.6339 12.4032 3.35651 3.42765 -0.0 -0.0 0.0 0.0 0.0 
1095.82591695 736.686 -1851.50751367 -1.83150245756 26.1107041809 4.71084889026 -1.04101 -0.233272 -1.41299 -1.03991 -0.142896 -1.42496 -1.03544 0.185503 -1.42004 -1.03826 -0.0410705 -1.43152 1.4246 18.1615 5.33753 2.09772 27.7236 7.271 -0.0 0.0 -0.0 0.936771 12.5323 3.03744 -19.9491 -41.4305 78.9194 0.26391 -7.44839 0.0171782 3.30289 0.104607 -0.408845 0.766536 5.79005 7.45673 -0.0 0.0 -0.0 9.91559 20.804 -19.1538 8.59875 26.0532 -55.1201 2.15973 46.9273 -0.937538 -1.85024 0.0688555 -0.226229 0.997717 11.6629 -1.77022 0.0 0.0 0.0 34.0783 -1.80628 -11.1457 -40.5164 -0.499948 6.07042 38.7389 -0.752004 -4.7718 -6.54272 0.0 0.0 -0.0 0.0 -0.0 1.68736 1.98637 -5.86403 -7.83968 -0.242513 -1.17778 25.7743 10.6197 3.57916 2.9072 -0.0 -0.0 0.0 0.0 0.0 
1072.83577888 733.995 -1860.47741367 -2.42661489377 28.0252019077 5.26455785224 -0.859471 -0.126718 -1.4007 -0.85838 -0.0373401 -1.40592 -0.856711 0.279675 -1.37833 -0.859357 0.0585057 -1.4052 1.74668 17.9697 4.63843 2.44498 27.8722 6.43741 -0.0 0.0 -0.0 0.227363 11.4366 1.73639 -20.6925 -42.4657 79.8846 0.339861 -9.55674 0.0284098 2.51484 0.0817941 -0.310769 1.02174 6.55434 9.44261 -0.0 0.0 -0.0 9.50888 21.6914 -18.174 8.70301 25.8336 -54.6375 2.46414 50.6668 -1.16669 -1.42907 0.0525393 -0.174927 1.30762 14.8343 -2.47253 0.0 0.0 0.0 36.4304 0.0174652 -12.4375 -39.9909 -0.46619 5.99702 37.4516 -5.41113 -4.71141 -6.96258 0.0 0.0 -0.0 0.0 -0.0 0.267071 3.1205 -5.90688 -6.44366 -0.211169 -0.965846 26.761 9.57056 3.67457 2.49677 -0.0 -0.0 0.0 0.0 0.0 
1070.66407949 733.995 -1858.78088412 -2.43397050703 28.3485994183 5.28013019352 -0.859471 -0.126718 -1.4007 -0.85838 -0.0373401 -1.40592 -0.856711 0.279675 -1.37833 -0.859357 0.0585057 -1.4052 1.74668 17.9697 4.63843 2.44498 27.8722 6.43741 -0.0 0.0 -0.0 0.227363 11.4366 1.73639 -20.6925 -42.4657 79.8846 0.339861 -9.55674 0.0284098 2.51484 0.0817941 -0.310769 1.02174 6.55434 9.44261 -0.0 0.0 -0.0 9.50888 21.6914 -18.174 8.70301 25.8336 -54.6375 2.46414 50.6668 -1.16669 -1.42907 0.0525393 -0.174927 1.30762 14.8343 -2.47253 0.0 0.0 0.0 36.4304 0.0174652 -12.4375 -39.9909 -0.46619 5.99702 37.4516 -5.41113 -4.71141 -6.96258 0.0 0.0 -0.0 0.0 -0.0 0.267071 3.1205 -5.90688 -6.44366 -0.211169 -0.965846 26.761 9.57056 3.67457 2.49677 -0.0 -0.0 0.0 0.0 0.0 
1066.11879944 733.995 -1855.16542428 -2.44987642849 29.0301545246 5.31326274212 -0.859471 -0.126718 -1.4007 -0.85838 -0.0373401 -1.40592 -0.856711 0.279675 -1.37833 -0.859357 0.0585057 -1.4052 1.74668 17.9697 4.63843 2.44498 27.8722 6.43741 -0.0 0.0 -0.0 0.227363 11.4366 1.73639 -20.6925 -42.4657 79.8846 0.339861 -9.55674 0.0284098 2.51484 0.0817941 -0.310769 1.02174 6.55434 9.44261 -0.0 0.0 -0.0 9.50888 21.6914 -18.174 8.70301 25.8336 -54.6375 2.46414 50.6668 -1.16669 -1.42907 0.0525393 -0.174927 1.30762 14.8343 -2.47253 0.0 0.0 0.0 36.4304 0.0174652 -12.4375 -39.9909 -0.46619 5.99702 37.4516 -5.41113 -4.71141 -6.96258 0.0 0.0 -0.0 0.0 -0.0 0.267071 3.1205 -5.90688 -6.44366 -0.211169 -0.965846 26.761 9.57056 3.67457 2.49677 -0.0 -0.0 0.0 0.0 0.0 
